<?xml version="1.0" encoding="iso-8859-1"?>
<!-- Uploaded to: SVG Repo, www.svgrepo.com, Generator: SVG Repo Mixer Tools -->
<svg fill="#000000" height="800px" width="800px" version="1.1" id="Layer_1" xmlns="http://www.w3.org/2000/svg" xmlns:xlink="http://www.w3.org/1999/xlink" 
	 viewBox="0 0 512 512" xml:space="preserve">
<g>
	<g>
		<g>
			<path d="M96,234.659H53.333c-5.888,0-10.667,4.779-10.667,10.667v85.333c0,5.888,4.779,10.667,10.667,10.667H96
				c5.888,0,10.667-4.779,10.667-10.667v-85.333C106.667,239.437,101.888,234.659,96,234.659z M85.333,319.992H64v-64h21.333
				V319.992z"/>
			<path d="M96,362.659H53.333c-5.888,0-10.667,4.779-10.667,10.667v85.333c0,5.888,4.779,10.667,10.667,10.667H96
				c5.888,0,10.667-4.779,10.667-10.667v-85.333C106.667,367.437,101.888,362.659,96,362.659z M85.333,447.992H64v-64h21.333
				V447.992z"/>
			<path d="M202.667,362.659H160c-5.888,0-10.667,4.779-10.667,10.667v85.333c0,5.888,4.779,10.667,10.667,10.667h42.667
				c5.888,0,10.667-4.779,10.667-10.667v-85.333C213.333,367.437,208.555,362.659,202.667,362.659z M192,447.992h-21.333v-64H192
				V447.992z"/>
			<path d="M504.469,85.795L227.136,0.461c-3.243-0.96-6.763-0.384-9.472,1.621c-2.731,2.005-4.331,5.184-4.331,8.576v128.277
				L7.019,213.965C2.795,215.501,0,219.512,0,223.992v277.333c0,5.888,4.779,10.667,10.667,10.667h490.667
				c5.888,0,10.667-4.779,10.667-10.667V95.992C512,91.299,508.949,87.16,504.469,85.795z M234.667,490.659H21.333v-259.2
				l206.293-75.008h0.021l7.019-2.56V490.659z M490.667,490.659H256v-352c0-1.749-0.427-3.435-1.195-4.928
				c-0.768-1.493-1.92-2.816-3.349-3.819c-2.859-1.984-6.507-2.496-9.771-1.28l-7.019,2.539V25.101l256,78.763V490.659z"/>
			<path d="M288,341.325h42.667c5.888,0,10.667-4.779,10.667-10.667v-85.333c0-5.888-4.779-10.667-10.667-10.667H288
				c-5.888,0-10.667,4.779-10.667,10.667v85.333C277.333,336.547,282.112,341.325,288,341.325z M298.667,255.992H320v64h-21.333
				V255.992z"/>
			<path d="M202.667,234.659H160c-5.888,0-10.667,4.779-10.667,10.667v85.333c0,5.888,4.779,10.667,10.667,10.667h42.667
				c5.888,0,10.667-4.779,10.667-10.667v-85.333C213.333,239.437,208.555,234.659,202.667,234.659z M192,319.992h-21.333v-64H192
				V319.992z"/>
			<path d="M288,213.325h42.667c5.888,0,10.667-4.779,10.667-10.667v-85.333c0-5.888-4.779-10.667-10.667-10.667H288
				c-5.888,0-10.667,4.779-10.667,10.667v85.333C277.333,208.547,282.112,213.325,288,213.325z M298.667,127.992H320v64h-21.333
				V127.992z"/>
			<path d="M288,469.325h42.667c5.888,0,10.667-4.779,10.667-10.667v-85.333c0-5.888-4.779-10.667-10.667-10.667H288
				c-5.888,0-10.667,4.779-10.667,10.667v85.333C277.333,464.547,282.112,469.325,288,469.325z M298.667,383.992H320v64h-21.333
				V383.992z"/>
			<path d="M394.667,213.325h42.667c5.888,0,10.667-4.779,10.667-10.667v-85.333c0-5.888-4.779-10.667-10.667-10.667h-42.667
				c-5.888,0-10.667,4.779-10.667,10.667v85.333C384,208.547,388.779,213.325,394.667,213.325z M405.333,127.992h21.333v64h-21.333
				V127.992z"/>
			<path d="M394.667,341.325h42.667c5.888,0,10.667-4.779,10.667-10.667v-85.333c0-5.888-4.779-10.667-10.667-10.667h-42.667
				c-5.888,0-10.667,4.779-10.667,10.667v85.333C384,336.547,388.779,341.325,394.667,341.325z M405.333,255.992h21.333v64h-21.333
				V255.992z"/>
			<path d="M394.667,469.325h42.667c5.888,0,10.667-4.779,10.667-10.667v-85.333c0-5.888-4.779-10.667-10.667-10.667h-42.667
				c-5.888,0-10.667,4.779-10.667,10.667v85.333C384,464.547,388.779,469.325,394.667,469.325z M405.333,383.992h21.333v64h-21.333
				V383.992z"/>
		</g>
	</g>
</g>
</svg>