<?xml version="1.0" encoding="iso-8859-1"?>
<!-- Uploaded to: SVG Repo, www.svgrepo.com, Generator: SVG Repo Mixer Tools -->
<svg version="1.1" id="Layer_1" xmlns="http://www.w3.org/2000/svg" xmlns:xlink="http://www.w3.org/1999/xlink" 
	 viewBox="0 0 512 512" xml:space="preserve">
<g>
	<rect x="159.997" y="180.552" style="fill:#1D1D1B;" width="104" height="15.674"/>
	<rect x="279.995" y="180.552" style="fill:#1D1D1B;" width="24.001" height="15.674"/>
	<path style="fill:#1D1D1B;" d="M503.837,387.773v-87.546h8v-39.674h-8V108.554h-39.674v79.674h24.001v72.327h-88v39.674h8v87.546
		h-56.326v-18.498c21.153-3.916,29.888-15.429,30.508-16.286l1.492-2.057v-202.38h-32.195c3.617-4.725,6.205-10.279,7.417-16.326
		h8.941v-15.674h-96v15.674h8.941c1.212,6.047,3.798,11.601,7.417,16.326h-64.716c3.617-4.725,6.205-10.279,7.416-16.326H240
		v-15.674h-96v15.674h8.941c1.212,6.047,3.798,11.601,7.417,16.326h-32.195v199.837l0.008,12.113l11.051-4.969
		c0.229-0.103,8.065-3.545,20.94-6.938v39.177h-56.325v-87.546h8v-39.674h-88v-72.327h24.001v-79.674H8.163v152h-8v39.674h8v87.546
		H0v15.674h512v-15.674H503.837z M23.837,124.228h8.327v48.326h-8.327V124.228z M88.163,387.773H23.837v-87.546h64.327V387.773z
		 M96.163,284.391h-8v0.163H23.837v-0.163h-8v-8.164h80.327V284.391z M342.852,132.227c-3.263,9.487-12.271,16.326-22.852,16.326
		c-10.581,0-19.589-6.839-22.851-16.326C297.148,132.227,342.852,132.227,342.852,132.227z M214.852,132.227
		c-3.263,9.487-12.27,16.326-22.851,16.326s-19.589-6.839-22.852-16.326C169.148,132.227,214.852,132.227,214.852,132.227z
		 M336.163,387.773H175.837v-42.651c26.358-4.768,63.699-6.182,100.974,10.427c24.631,10.975,44.142,14.858,59.353,15.012v17.212
		H336.163z M327.837,354.374V300.39h-15.674v51.104c-2.66-0.67-5.434-1.452-8.326-2.363v-16.741h-15.674v10.98
		c-1.631-0.679-3.283-1.385-4.974-2.138c-23.374-10.415-46.492-14.451-67.353-15.051v-17.791h-15.674v17.959
		c-2.836,0.143-5.614,0.341-8.326,0.588v-34.547h-15.674v36.576c-13.58,2.273-24.724,5.477-32.326,8.052V164.227h224.327v181.081
		c-2.35,2.133-7.475,5.85-16.368,7.992C346.025,354.69,338.139,355.496,327.837,354.374z M479.837,172.554v-48.326h8.327v48.326
		H479.837z M488.163,387.773h-64.326v-87.546h64.327v87.546H488.163z M496.163,284.391h-8v0.163h-64.326v-0.163h-8v-8.164h80.327
		v8.164H496.163z"/>
</g>
</svg>