<?xml version="1.0" encoding="utf-8"?>
<!-- Uploaded to: SVG Repo, www.svgrepo.com, Generator: SVG Repo Mixer Tools -->
<svg width="800px" height="800px" viewBox="0 0 24 24" id="Layer_1" data-name="Layer 1" xmlns="http://www.w3.org/2000/svg" xmlns:xlink="http://www.w3.org/1999/xlink">
<defs>
<style>.cls-1{fill:none;}.cls-2{clip-path:url(#clip-path);}</style>
<clipPath id="clip-path">
<rect class="cls-1" width="24" height="24"/>
</clipPath>
</defs>
<title>user-tie</title>
<g class="cls-2">
<path d="M12,14a6,6,0,1,1,6-6A6,6,0,0,1,12,14ZM12,4a4,4,0,1,0,4,4A4,4,0,0,0,12,4Z"/>
<path d="M21,22a1,1,0,0,1-1-1,7,7,0,0,0-7-7H11a7,7,0,0,0-7,7,1,1,0,0,1-2,0,9,9,0,0,1,9-9h2a9,9,0,0,1,9,9A1,1,0,0,1,21,22Z"/>
<path d="M12,22a1,1,0,0,1-.71-.29l-1-1a1,1,0,0,1-.28-.85l1-7a1,1,0,0,1,2,0l1,7a1,1,0,0,1-.28.85l-1,1A1,1,0,0,1,12,22Z"/>
</g>
</svg>