<?xml version="1.0" encoding="iso-8859-1"?>
<!-- Uploaded to: SVG Repo, www.svgrepo.com, Generator: SVG Repo Mixer Tools -->
<svg fill="#000000" height="800px" width="800px" version="1.1" id="Layer_1" xmlns="http://www.w3.org/2000/svg" xmlns:xlink="http://www.w3.org/1999/xlink" 
	 viewBox="0 0 512 512" xml:space="preserve">
<g>
	<g>
		<path d="M387.589,20.672C374.455,7.341,356.918,0,338.204,0H173.796c-18.74,0-36.296,7.36-49.435,20.723
			c-13.138,13.363-20.198,31.041-19.88,49.778l6.542,385.514c0.256,15.029,6.3,29.109,17.017,39.645
			c10.717,10.537,24.898,16.34,39.928,16.34h176.863c30.939,0,56.485-25.169,56.946-56.104l5.743-385.539
			C407.8,51.647,400.721,34.002,387.589,20.672z M381.382,455.591c-0.296,19.857-16.692,36.01-36.55,36.01H167.968
			c-19.817,0-36.213-16.12-36.55-35.934l-6.541-385.514c-0.225-13.224,4.758-25.7,14.03-35.131
			c9.272-9.431,21.662-14.625,34.888-14.625h164.408c13.207,0,25.585,5.181,34.854,14.589c9.268,9.407,14.264,21.86,14.067,35.065
			L381.382,455.591z"/>
	</g>
</g>
<g>
	<g>
		<path d="M359.73,84.373c-6.953-7.054-16.236-10.939-26.141-10.939H179.307c-9.904,0-19.188,3.885-26.14,10.939
			c-6.953,7.054-10.703,16.393-10.559,26.297l1.271,87.741c0.29,19.945,16.752,36.171,36.7,36.171h151.738
			c19.948,0,36.411-16.227,36.702-36.171l1.271-87.741C370.432,100.765,366.681,91.427,359.73,84.373z M348.619,198.114
			c-0.128,8.86-7.442,16.069-16.303,16.069H180.578c-8.861,0-16.175-7.209-16.303-16.069l-1.271-87.741
			c-0.063-4.4,1.602-8.548,4.691-11.682c3.089-3.133,7.214-4.859,11.613-4.859h154.281c4.4,0,8.525,1.726,11.611,4.859
			c3.088,3.134,4.755,7.283,4.691,11.682L348.619,198.114z"/>
	</g>
</g>
<g>
	<g>
		<path d="M196.602,328.236h-26.114c-5.632,0-10.199,4.566-10.199,10.199c0,5.633,4.567,10.199,10.199,10.199h26.114
			c5.632,0,10.199-4.566,10.199-10.199C206.801,332.802,202.234,328.236,196.602,328.236z"/>
	</g>
</g>
<g>
	<g>
		<path d="M269.504,328.236h-26.115c-5.632,0-10.199,4.566-10.199,10.199c0,5.633,4.567,10.199,10.199,10.199h26.115
			c5.633,0,10.199-4.566,10.199-10.199C279.704,332.802,275.136,328.236,269.504,328.236z"/>
	</g>
</g>
<g>
	<g>
		<path d="M342.407,328.236h-26.114c-5.632,0-10.199,4.566-10.199,10.199c0,5.633,4.567,10.199,10.199,10.199h26.114
			c5.632,0,10.199-4.566,10.199-10.199C352.607,332.802,348.039,328.236,342.407,328.236z"/>
	</g>
</g>
<g>
	<g>
		<path d="M196.602,366.576h-26.114c-5.632,0-10.199,4.566-10.199,10.199c0,5.633,4.567,10.199,10.199,10.199h26.114
			c5.632,0,10.199-4.566,10.199-10.199C206.801,371.142,202.234,366.576,196.602,366.576z"/>
	</g>
</g>
<g>
	<g>
		<path d="M269.504,366.576h-26.115c-5.632,0-10.199,4.566-10.199,10.199c0,5.633,4.567,10.199,10.199,10.199h26.115
			c5.633,0,10.199-4.566,10.199-10.199C279.704,371.142,275.136,366.576,269.504,366.576z"/>
	</g>
</g>
<g>
	<g>
		<path d="M342.407,366.576h-26.114c-5.632,0-10.199,4.566-10.199,10.199c0,5.633,4.567,10.199,10.199,10.199h26.114
			c5.632,0,10.199-4.566,10.199-10.199C352.607,371.142,348.039,366.576,342.407,366.576z"/>
	</g>
</g>
<g>
	<g>
		<path d="M196.602,405.63h-26.114c-5.632,0-10.199,4.566-10.199,10.199c0,5.633,4.567,10.199,10.199,10.199h26.114
			c5.632,0,10.199-4.566,10.199-10.199C206.801,410.197,202.234,405.63,196.602,405.63z"/>
	</g>
</g>
<g>
	<g>
		<path d="M269.504,405.63h-26.115c-5.632,0-10.199,4.566-10.199,10.199c0,5.633,4.567,10.199,10.199,10.199h26.115
			c5.633,0,10.199-4.566,10.199-10.199C279.704,410.197,275.136,405.63,269.504,405.63z"/>
	</g>
</g>
<g>
	<g>
		<path d="M342.407,405.63h-26.114c-5.632,0-10.199,4.566-10.199,10.199c0,5.633,4.567,10.199,10.199,10.199h26.114
			c5.632,0,10.199-4.566,10.199-10.199C352.607,410.197,348.039,405.63,342.407,405.63z"/>
	</g>
</g>
<g>
	<g>
		<path d="M196.602,444.685h-26.114c-5.632,0-10.199,4.566-10.199,10.199c0,5.633,4.567,10.199,10.199,10.199h26.114
			c5.632,0,10.199-4.566,10.199-10.199C206.801,449.251,202.234,444.685,196.602,444.685z"/>
	</g>
</g>
<g>
	<g>
		<path d="M269.504,444.685h-26.115c-5.632,0-10.199,4.566-10.199,10.199c0,5.633,4.567,10.199,10.199,10.199h26.115
			c5.633,0,10.199-4.566,10.199-10.199C279.704,449.251,275.136,444.685,269.504,444.685z"/>
	</g>
</g>
<g>
	<g>
		<path d="M342.407,444.685h-26.114c-5.632,0-10.199,4.566-10.199,10.199c0,5.633,4.567,10.199,10.199,10.199h26.114
			c5.632,0,10.199-4.566,10.199-10.199C352.607,449.251,348.039,444.685,342.407,444.685z"/>
	</g>
</g>
<g>
	<g>
		<path d="M297.244,36.717h-4.08c-5.632,0-10.199,4.566-10.199,10.199c0,5.633,4.567,10.199,10.199,10.199h4.08
			c5.632,0,10.199-4.566,10.199-10.199C307.443,41.283,302.876,36.717,297.244,36.717z"/>
	</g>
</g>
<g>
	<g>
		<path d="M257.467,36.717h-43.857c-5.632,0-10.199,4.566-10.199,10.199c0,5.633,4.567,10.199,10.199,10.199h43.857
			c5.632,0,10.199-4.566,10.199-10.199C267.667,41.283,263.099,36.717,257.467,36.717z"/>
	</g>
</g>
<g>
	<g>
		<path d="M247.341,287.545l-29.578-29.578c-1.913-1.912-4.507-2.987-7.212-2.987h-41.817c-5.632,0-10.199,4.566-10.199,10.199
			v29.578c0,5.633,4.567,10.199,10.199,10.199h71.394c4.126,0,7.844-2.486,9.423-6.296
			C251.13,294.85,250.257,290.462,247.341,287.545z M178.933,284.558v-9.179h27.392l9.179,9.179H178.933z"/>
	</g>
</g>
<g>
	<g>
		<path d="M344.161,254.98h-71.394c-4.126,0-7.844,2.484-9.423,6.296c-1.578,3.81-0.705,8.198,2.211,11.115l29.578,29.578
			c1.913,1.912,4.507,2.987,7.212,2.987h41.817c5.632,0,10.199-4.566,10.199-10.199v-29.578
			C354.36,259.546,349.793,254.98,344.161,254.98z M333.96,284.558h-27.392l-9.179-9.179h36.571V284.558z"/>
	</g>
</g>
</svg>